<?xml version="1.0" encoding="utf-8"?>
<!-- Generator: Adobe Illustrator 23.0.2, SVG Export Plug-In . SVG Version: 6.00 Build 0)  -->
<svg version="1.1" id="图层_1" xmlns="http://www.w3.org/2000/svg" xmlns:xlink="http://www.w3.org/1999/xlink" x="0px" y="0px"
	 viewBox="0 0 96 96" style="enable-background:new 0 0 96 96;" xml:space="preserve">
<style type="text/css">
	.st0{fill:#FFFFFF;}
</style>
<g>
	<circle cx="48" cy="48" r="48"/>
	<path class="st0" d="M72,40.2c0,1.5-0.3,3.3-0.6,5.4l-4.8,24.3c0,0.6-0.6,0.9-0.9,0.9h-6c-0.6,0-1.2-0.6-0.9-1.2l4.8-24
		c0.3-1.5,0.3-2.7,0.3-3.6c0-6-3.3-9.3-10.5-9.3c-8.7,0-14.7,4.8-16.5,14.4l-4.5,23.1c0,0.6-0.6,0.9-0.9,0.9h-6
		c-0.6,0-1.2-0.6-0.9-1.2L33,27c0-0.6,0.6-0.9,0.9-0.9h5.7c0.6,0,1.2,0.6,0.9,1.2l-0.3,1.8c-0.3,0.9,0.9,1.5,1.5,0.9
		c3.9-3,8.7-4.2,14.1-4.2C66,25.2,72,30.6,72,40.2z"/>
</g>
</svg>
